<svg xmlns="http://www.w3.org/2000/svg" width="220.875" height="29.562"><path fill="#3CADB2" d="M11.086 15.826c2.152 0 3.15 1.633 3.36 3.952.049.556-.002 1.364-.074 2.301-.242 3.114-.52 6.939 1.553 6.939 1.753 0 2.654-3.363 3.174-7.198.502-3.795-.03-5.685.231-7.369.498-3.193 3.286-6.056 2.424-10.128-.477-2.259-1.72-3.321-2.953-3.768-2.838-1.033-4.67.957-7.718.957S6.203-.478 3.364.555C2.135 1.002.891 2.064.414 4.323c-.86 4.071 1.926 6.935 2.426 10.128.261 1.685-.27 3.574.232 7.369.52 3.834 1.42 7.198 3.174 7.198 2.071 0 1.795-3.825 1.553-6.939-.071-.937-.124-1.746-.074-2.301.209-2.32 1.22-3.952 3.361-3.952z"/><g fill="#3CADB2"><path d="M27.138 26.492V2.483h8.207c7.451 0 12.311 5.219 12.311 12.022 0 6.839-4.859 11.986-12.311 11.986h-8.207zM44.56 14.505c0-5.184-3.275-9.359-9.215-9.359h-5.219v18.682h5.219c5.831 0 9.215-4.176 9.215-9.323zM51.222 17.781c0-5.04 3.6-9.107 8.567-9.107 5.255 0 8.351 4.104 8.351 9.323v.684H54.065c.216 3.275 2.52 6.011 6.263 6.011 1.979 0 3.995-.792 5.363-2.196l1.296 1.764c-1.728 1.728-4.068 2.664-6.911 2.664-5.147 0-8.854-3.708-8.854-9.143zm8.53-6.875c-3.708 0-5.543 3.131-5.687 5.795h11.41c-.035-2.592-1.763-5.795-5.723-5.795zM84.231 26.492V15.117c0-3.06-1.548-4.032-3.887-4.032-2.124 0-4.14 1.296-5.147 2.7v12.707h-2.7V9.106h2.7v2.52c1.224-1.44 3.6-2.952 6.191-2.952 3.636 0 5.543 1.836 5.543 5.615v12.203h-2.7zM92.873 22.856V11.481h-2.88V9.106h2.88V4.354h2.7v4.751H99.1v2.375h-3.527v10.8c0 1.296.576 2.231 1.764 2.231.756 0 1.476-.324 1.836-.72l.792 2.016c-.685.648-1.656 1.116-3.24 1.116-2.556.001-3.852-1.475-3.852-4.067zM102.449 4.822c0-1.008.828-1.835 1.8-1.835 1.008 0 1.836.828 1.836 1.835s-.828 1.8-1.836 1.8c-.972 0-1.8-.792-1.8-1.8zm.468 21.67V9.106h2.7v17.386h-2.7zM109.505 24.188l1.404-1.944c1.15 1.332 3.348 2.484 5.723 2.484 2.664 0 4.104-1.26 4.104-2.988 0-4.211-10.762-1.62-10.762-8.063 0-2.7 2.338-5.003 6.479-5.003 2.951 0 5.039 1.116 6.443 2.52l-1.26 1.872c-1.045-1.26-2.953-2.196-5.184-2.196-2.377 0-3.852 1.188-3.852 2.736 0 3.815 10.762 1.296 10.762 8.063 0 2.916-2.34 5.255-6.838 5.255-2.843 0-5.255-.864-7.019-2.736zM128.296 22.856V11.481h-2.879V9.106h2.879V4.354h2.699v4.751h3.527v2.375h-3.527v10.8c0 1.296.576 2.231 1.764 2.231.756 0 1.477-.324 1.836-.72l.793 2.016c-.686.648-1.656 1.116-3.24 1.116-2.557.001-3.852-1.475-3.852-4.067zM137.009 23.108l1.764-2.268c1.584 1.764 4.174 3.419 7.559 3.419 4.283 0 5.65-2.304 5.65-4.139 0-6.191-14.217-2.772-14.217-11.339 0-3.959 3.527-6.659 8.242-6.659 3.672 0 6.516 1.224 8.531 3.348l-1.801 2.196c-1.799-1.979-4.318-2.879-6.947-2.879-2.879 0-4.93 1.547-4.93 3.815 0 5.399 14.217 2.304 14.217 11.267 0 3.491-2.375 7.055-8.854 7.055-4.175 0-7.236-1.584-9.214-3.816zM180.421 26.492V14.685c0-2.196-.973-3.6-3.203-3.6-1.801 0-3.709 1.296-4.607 2.664v12.742h-2.699V14.685c0-2.196-.938-3.6-3.205-3.6-1.764 0-3.635 1.296-4.57 2.7v12.707h-2.701V9.106h2.701v2.52c.719-1.116 3.059-2.952 5.615-2.952 2.664 0 4.176 1.44 4.68 3.24.971-1.584 3.311-3.24 5.83-3.24 3.168 0 4.859 1.764 4.859 5.255v12.562h-2.7zM188.056 4.822c0-1.008.828-1.835 1.799-1.835 1.008 0 1.836.828 1.836 1.835s-.828 1.8-1.836 1.8a1.805 1.805 0 01-1.799-1.8zm.466 21.67V9.106h2.701v17.386h-2.701zM196.622 26.492V2.483h2.701v24.009h-2.701zM203.716 17.781c0-5.04 3.6-9.107 8.566-9.107 5.256 0 8.352 4.104 8.352 9.323v.684H206.56c.215 3.275 2.52 6.011 6.264 6.011 1.979 0 3.994-.792 5.363-2.196l1.295 1.764c-1.727 1.728-4.066 2.664-6.91 2.664-5.149 0-8.856-3.708-8.856-9.143zm8.531-6.875c-3.707 0-5.543 3.131-5.688 5.795h11.41c-.034-2.592-1.763-5.795-5.722-5.795z"/></g></svg>